<?xml version="1.0" encoding="utf-8"?>
<!-- Generator: Adobe Illustrator 16.0.0, SVG Export Plug-In . SVG Version: 6.00 Build 0)  -->
<!DOCTYPE svg PUBLIC "-//W3C//DTD SVG 1.1//EN" "http://www.w3.org/Graphics/SVG/1.1/DTD/svg11.dtd">
<svg version="1.1" id="Layer_1" xmlns="http://www.w3.org/2000/svg" xmlns:xlink="http://www.w3.org/1999/xlink" x="0px" y="0px"
	 width="32px" height="32px" viewBox="0 0 32 32" enable-background="new 0 0 32 32" xml:space="preserve">
<polygon fill="#EE7913" points="17.613,17.625 21.97,17.612 17.969,13.625 13.613,13.625 13.613,17.625 17.613,22.082 "/>
<linearGradient id="SVGID_1_" gradientUnits="userSpaceOnUse" x1="25.7119" y1="32.0371" x2="25.2525" y2="1.8349">
	<stop  offset="0" style="stop-color:#589632"/>
	<stop  offset="1" style="stop-color:#93B023"/>
</linearGradient>
<polygon fill="url(#SVGID_1_)" points="31.613,27.222 23.989,19.624 19.613,19.625 19.613,23.958 26.853,31.625 31.613,31.625 "/>
<polygon fill="#F0E64A" points="19.613,19.625 23.989,19.624 21.97,17.612 17.613,17.625 17.613,22.082 19.613,23.958 "/>
<linearGradient id="SVGID_2_" gradientUnits="userSpaceOnUse" x1="16.2764" y1="32.1177" x2="15.8078" y2="1.3113">
	<stop  offset="0" style="stop-color:#589632"/>
	<stop  offset="1" style="stop-color:#93B023"/>
</linearGradient>
<path fill="url(#SVGID_2_)" d="M18,25.185c-0.682,0.157-1.17,0.195-1.901,0.195c-5.229,0-9.677-4.3-9.677-9.876
	c0-5.576,4.399-9.781,9.677-9.781s9.482,4.205,9.482,9.781c0,0.907-0.155,1.961-0.364,2.788L30.1,22.95
	c1.248-2.187,1.946-4.729,1.946-7.482c0-8.594-6.858-15.028-16.044-15.028C6.858,0.439,0,6.831,0,15.467
	c0,8.678,6.858,15.197,16.001,15.197c2.361,0,4.224-0.3,6.2-1.09L18,25.185z"/>
<polygon opacity="0.15" fill="#FFFFFF" points="13.613,13.625 17.969,13.625 31.613,27.222 31.613,31.625 "/>
</svg>
